<svg xmlns="http://www.w3.org/2000/svg" width="394.726" height="118.694" viewBox="0 0 394.726 118.694">
  <g id="Group_7411" data-name="Group 7411" transform="translate(1647.385 -50.13)">
    <path id="Path_11855" data-name="Path 11855" d="M-1095.259,50.13c2.236.506,4.514.873,6.7,1.541,8.458,2.585,12.84,7.794,13.323,16.6.4,7.327.218,14.686.285,22.032.017,1.9.056,3.8-.008,5.7a14.612,14.612,0,0,0,3.074,9.468,29.726,29.726,0,0,1,1.761,2.524,2.092,2.092,0,0,1-.423,2.907c-3.028,2.624-6.035,5.273-9.1,7.853a2.387,2.387,0,0,1-3.7-.162c-2.247-2.3-4.367-4.723-6.632-7.2-1.064.941-2.365,2.062-3.633,3.219-7.09,6.467-19.851,6.408-25.8,3.058a16.357,16.357,0,0,1-8.335-12.109c-1.239-7.13-.052-13.727,4.906-19.269,3.822-4.273,8.855-6.441,14.367-7.428,5.344-.957,10.741-1.613,16.476-2.454a60.8,60.8,0,0,0-.7-7.749c-.827-3.889-4.548-6.052-8.906-5.54-4.454.523-7.544,2.685-8.7,7.224-.5,1.959-1.268,2.439-3.222,2.226q-5.05-.55-10.095-1.15c-2.223-.267-2.855-1.24-2.327-3.509,1.889-8.125,7-13.306,14.794-15.871,2.652-.873,5.455-1.292,8.188-1.918Zm3.086,36.178c-2.724.3-5.284.409-7.777.876-7.609,1.425-11.2,6.34-10.158,13.681.806,5.69,6.024,8.376,11.121,5.7a12,12,0,0,0,5.552-6.737C-1091.817,95.587-1092.2,91.146-1092.173,86.308Z" transform="translate(-359.083)" fill="#fff"/>
    <path id="Path_11856" data-name="Path 11856" d="M-1614.389,50.13c1.938.42,3.9.756,5.81,1.278a19.87,19.87,0,0,1,10.172,6.025,17.092,17.092,0,0,1,4.021,11.216c.15,8.625.242,17.255.126,25.879a18.145,18.145,0,0,0,3.967,12.131c1.993,2.488,1.835,3.1-.584,5.2q-3.723,3.231-7.449,6.458c-1.865,1.605-2.917,1.7-4.651-.055-2.152-2.177-4.1-4.559-6.159-6.886-1.412,1.21-2.922,2.669-4.594,3.909-6.941,5.152-14.679,5.851-22.656,3.315-6.257-1.99-9.45-6.889-10.662-13.182-.086-.445-.224-.881-.338-1.321V97.62a4.569,4.569,0,0,0,.309-.832,19.956,19.956,0,0,1,8.518-13.566c4.811-3.374,10.392-4.509,16.057-5.3,3.646-.513,7.314-.877,11.209-1.335-.136-2.5-.1-4.916-.439-7.284a6.757,6.757,0,0,0-5.39-5.857c-4.933-1.277-11.219.926-12.435,7.016-.349,1.747-1.259,2.312-3,2.131q-5.283-.549-10.557-1.185c-1.819-.217-2.506-1.159-2.144-2.96,1.686-8.39,6.861-13.7,14.806-16.378a84.52,84.52,0,0,1,8.353-1.936Zm3.016,35.97a92.4,92.4,0,0,0-9.824,1.673c-5.973,1.682-8.709,5.786-8.284,11.98.218,3.166,1.286,6,4.533,7.259a7.791,7.791,0,0,0,8.77-1.954,16.854,16.854,0,0,0,3.317-4.909C-1610.934,95.853-1611.51,91.229-1611.373,86.1Z" fill="#fff"/>
    <path id="Path_11857" data-name="Path 11857" d="M-1413.308,63.164c3.21-7.061,8.277-11.091,16.239-11.17,8.046-.08,12.767,4.389,15.893,11.491a19.166,19.166,0,0,1,5.558-7.722c7.113-5.671,18.288-4.88,24.4,1.743,3.161,3.423,4.125,7.654,4.154,12.089.086,13.41.031,26.821.031,40.231,0,2.569.015,5.138-.007,7.707-.016,1.848-.853,2.79-2.71,2.821q-5.7.1-11.406.006c-1.936-.029-2.741-1.007-2.741-3.121,0-11.715.032-23.43.012-35.145a56.4,56.4,0,0,0-.308-8.45c-.8-5.193-5.725-7.479-10.47-5.09-2.932,1.476-4.274,4.032-4.7,7.142a33.375,33.375,0,0,0-.338,4.449q-.048,18.343-.033,36.686c0,2.829-.712,3.541-3.566,3.548q-4.932.012-9.865,0c-2.706-.007-3.441-.76-3.44-3.513,0-12.331.061-24.663-.026-36.994a33.958,33.958,0,0,0-.935-7.587,5.768,5.768,0,0,0-5.646-4.617c-3.234-.238-6.139.554-7.415,3.725a22.1,22.1,0,0,0-1.7,7.723c-.188,12.534-.115,25.072-.134,37.609,0,2.95-.691,3.648-3.622,3.654-3.34.006-6.68.014-10.019,0-2.444-.012-3.213-.8-3.213-3.241q0-30.289,0-60.578c0-2.552.725-3.265,3.31-3.268,3.289,0,6.577-.013,9.865,0,2,.01,2.815.828,2.826,2.791C-1413.3,58.444-1413.308,60.8-1413.308,63.164Z" transform="translate(-150.823 -1.276)" fill="#fff"/>
    <path id="Path_11858" data-name="Path 11858" d="M-514.084,64.115c.756-1.424,1.454-2.883,2.277-4.268,4.108-6.909,10.178-8.659,17.253-7.636,7.46,1.079,12.173,5.734,13.516,13.011a54.639,54.639,0,0,1,.931,9.478c.1,14.235.05,28.47.05,42.705,0,2.065-.772,2.911-2.856,2.937q-5.549.069-11.1,0c-2.079-.024-2.847-.908-2.848-3.135-.006-12.488.035-24.976-.037-37.463a32.985,32.985,0,0,0-.774-6.857c-.629-2.855-2.342-4.893-5.439-5.36a7.164,7.164,0,0,0-7.256,3.069c-2.332,3.2-2.96,6.974-2.985,10.807-.077,11.768-.044,23.537-.055,35.305,0,2.922-.714,3.641-3.639,3.647-3.34.006-6.681.015-10.021,0-2.409-.014-3.209-.842-3.209-3.279q-.008-30.372-.007-60.744c0-2.253.8-3.055,3.053-3.062q5.011-.015,10.021,0c2.077.009,2.879.822,2.886,2.888.008,2.642,0,5.284,0,7.926Z" transform="translate(-772.616 -1.253)" fill="#fff"/>
    <path id="Path_11859" data-name="Path 11859" d="M-712.253,51.982c10.175.126,18,4.211,22.639,12.877,7.478,13.973,7.812,28.412.654,42.656a24.354,24.354,0,0,1-17.557,13.539c-12.765,2.539-23.755-3.227-29.168-15.154-3.529-7.777-4.306-15.985-3.587-24.39a39.311,39.311,0,0,1,4.405-15.575C-729.941,56.84-722.345,52.1-712.253,51.982Zm10.522,35.251-.423-.051c0-1.027.031-2.054-.005-3.079-.171-4.771-.445-9.535-2.114-14.076a7.162,7.162,0,0,0-6.464-5.107c-3.662-.338-6.574.894-8.092,4.277a20.326,20.326,0,0,0-2.065,7.162c-.277,6.493-.239,13.011-.011,19.508a18.507,18.507,0,0,0,2.653,9.058,7.4,7.4,0,0,0,12.678.4,12.965,12.965,0,0,0,2.136-4.873C-702.684,96.078-702.277,91.643-701.731,87.233Z" transform="translate(-627.905 -1.281)" fill="#fff"/>
    <path id="Path_11860" data-name="Path 11860" d="M-1360.33,339.757c-37.219-.388-69.27-11.173-97.4-33.271-2.341-1.839-4.562-3.832-6.829-5.764-.35-.3-.825-.609-.929-1-.172-.637-.348-1.533-.033-1.963a2.007,2.007,0,0,1,1.851-.407,31.438,31.438,0,0,1,3.818,1.975,204.22,204.22,0,0,0,60.521,21.8,166.816,166.816,0,0,0,26.342,3.34c8.252.26,16.539.661,24.766.2a204.175,204.175,0,0,0,67.383-15.47,5.843,5.843,0,0,1,3.221-.5c2.376.511,2.969,2.874,1.22,4.578a22.551,22.551,0,0,1-3.072,2.311c-14.077,9.633-29.631,15.888-46.167,19.685-7.071,1.624-14.286,2.709-21.486,3.661C-1351.988,339.584-1356.942,339.566-1360.33,339.757Z" transform="translate(-125.663 -170.933)" fill="#f9840c"/>
    <path id="Path_11861" data-name="Path 11861" d="M-891.7,100.739c3.19.261,6.2.407,9.19.774a37.316,37.316,0,0,1,13.118,4.154,4.418,4.418,0,0,1,2.515,4.243c-.018,2.826.012,5.653-.009,8.479-.018,2.447-1.442,3.343-3.612,2.326-13.766-6.456-27.518-6.494-41.25.111-1.764.848-3.344.1-3.4-1.837a92.081,92.081,0,0,1,.153-10.93,11.536,11.536,0,0,1,2-5.2c7.346-10.714,14.825-21.335,22.259-31.988.288-.413.553-.842.986-1.505-.722-.039-1.248-.091-1.773-.091q-8.942-.009-17.884-.006c-2.866,0-3.432-.575-3.436-3.414q0-3.469,0-6.938c.006-2.591.588-3.2,3.154-3.2q9.79-.018,19.58,0,9.327,0,18.655,0c2.764,0,3.346.6,3.348,3.34a38.811,38.811,0,0,0,.026,4.16c.294,2.687-.708,4.862-2.213,6.988q-10.229,14.465-20.358,29C-890.989,99.686-891.318,100.18-891.7,100.739Z" transform="translate(-506.376 -3.855)" fill="#fff"/>
    <path id="Path_11862" data-name="Path 11862" d="M-896.443,290.8c-5.457.525-10.55,1.042-15.651,1.47a6.6,6.6,0,0,1-2.071-.534c.349-.679.525-1.593,1.075-2a30.526,30.526,0,0,1,11.021-4.931,47.208,47.208,0,0,1,20.873-.628c5.45,1.111,6.229,2.131,5.65,7.675-.94,8.99-3.813,17.3-9.428,24.5a29.294,29.294,0,0,1-4.068,4.186c-.589.5-1.634.477-2.47.692a8.942,8.942,0,0,1,.131-2.257c2-6.236,4.159-12.423,6.048-18.692a16.3,16.3,0,0,0,.26-5.312,2.983,2.983,0,0,0-2.583-2.884C-890.663,291.544-893.7,291.188-896.443,290.8Z" transform="translate(-507.113 -161.26)" fill="#f9840c"/>
  </g>
</svg>
